<svg xmlns="http://www.w3.org/2000/svg" xmlns:xlink="http://www.w3.org/1999/xlink" width="100" height="100" viewBox="0 0 100 100"><circle stroke="none" fill="#0283B3" r="48%" cx="50%" cy="50%"></circle><g transform="translate(50 50) scale(0.69 0.69) rotate(0) translate(-50 -50)" style="fill:#333333"><svg xmlns:dc="http://purl.org/dc/elements/1.1/" xmlns:cc="http://creativecommons.org/ns#" xmlns:rdf="http://www.w3.org/1999/02/22-rdf-syntax-ns#" xmlns:svg="http://www.w3.org/2000/svg" xmlns="http://www.w3.org/2000/svg" xmlns:sodipodi="http://sodipodi.sourceforge.net/DTD/sodipodi-0.dtd" xmlns:inkscape="http://www.inkscape.org/namespaces/inkscape" fill="#333333" version="1.1" x="0px" y="0px" viewBox="0 0 100 100"><path style="font-size:medium;font-style:normal;font-variant:normal;font-weight:normal;font-stretch:normal;text-indent:0;text-align:start;text-decoration:none;line-height:normal;letter-spacing:normal;word-spacing:normal;text-transform:none;direction:ltr;block-progression:tb;writing-mode:lr-tb;text-anchor:start;baseline-shift:baseline;opacity:1;color:#000000;fill:#333333;fill-opacity:1;stroke:none;stroke-width:4;marker:none;visibility:visible;display:inline;overflow:visible;enable-background:accumulate;font-family:Sans;-inkscape-font-specification:Sans" d="M 86 18 C 81.605411 18 78 21.605411 78 26 C 78 27.704194 78.546503 29.28906 79.46875 30.59375 L 67.46875 44.8125 C 66.414342 44.297911 65.243162 44 64 44 C 61.083632 44 58.526548 45.581559 57.125 47.9375 L 44 44.21875 C 44.002029 44.145364 44 44.073838 44 44 C 44 39.605411 40.394589 36 36 36 C 31.605411 36 28 39.605411 28 44 C 28 45.398074 28.359302 46.725782 29 47.875 L 18.21875 58.21875 C 16.990385 57.449824 15.543059 57 14 57 C 9.6054114 57 6 60.605411 6 65 C 6 69.394589 9.6054114 73 14 73 C 18.394589 73 22 69.394589 22 65 C 22 63.586617 21.622533 62.251774 20.96875 61.09375 L 31.78125 50.78125 C 33.009615 51.550176 34.456941 52 36 52 C 38.916368 52 41.473452 50.418441 42.875 48.0625 L 56 51.78125 C 55.997971 51.854636 56 51.926162 56 52 C 56 56.394589 59.605411 60 64 60 C 68.394589 60 72 56.394589 72 52 C 72 50.280138 71.437733 48.686428 70.5 47.375 L 82.53125 33.1875 C 83.585658 33.702089 84.756838 34 86 34 C 90.394589 34 94 30.394589 94 26 C 94 21.605411 90.394589 18 86 18 z M 86 22 C 88.232828 22 90 23.767172 90 26 C 90 28.232828 88.232828 30 86 30 C 83.767172 30 82 28.232828 82 26 C 82 23.767172 83.767172 22 86 22 z M 36 40 C 38.232828 40 40 41.767172 40 44 C 40 46.232828 38.232828 48 36 48 C 33.767172 48 32 46.232828 32 44 C 32 41.767172 33.767172 40 36 40 z M 64 48 C 66.232828 48 68 49.767172 68 52 C 68 54.232828 66.232828 56 64 56 C 61.767172 56 60 54.232828 60 52 C 60 49.767172 61.767172 48 64 48 z M 14 61 C 16.232828 61 18 62.767172 18 65 C 18 67.232828 16.232828 69 14 69 C 11.767172 69 10 67.232828 10 65 C 10 62.767172 11.767172 61 14 61 z M 7.8125 78 A 2.0021961 2.0021961 0 1 0 8 82 L 92 82 A 2.0002 2.0002 0 1 0 92 78 L 8 78 A 2.0002 2.0002 0 0 0 7.8125 78 z "></path></svg></g></svg>